<?xml version="1.0" encoding="UTF-8" standalone="no"?><svg xmlns="http://www.w3.org/2000/svg" xmlns:xlink="http://www.w3.org/1999/xlink" contentStyleType="text/css" height="514.5833px" preserveAspectRatio="none" style="width:445px;height:514px;" version="1.1" viewBox="0 0 445 514" width="445.8333px" zoomAndPan="magnify"><defs><linearGradient id="g1hgvc497z76pm0" x1="50%" x2="50%" y1="0%" y2="100%"><stop offset="0%" stop-color="#59B6EC"/><stop offset="100%" stop-color="#2FA4E7"/></linearGradient></defs><g><!--cluster Kubernetes--><g id="cluster_Kubernetes"><path d="M74.4792,16.6667 L154.6875,16.6667 A6.25,6.25 0 0 1 158.8542,20.8333 L166.1458,50.3585 L429.6875,50.3585 A4.1667,4.1667 0 0 1 433.8542,54.5251 L433.8542,498.4375 A4.1667,4.1667 0 0 1 429.6875,502.6042 L74.4792,502.6042 A4.1667,4.1667 0 0 1 70.3125,498.4375 L70.3125,20.8333 A4.1667,4.1667 0 0 1 74.4792,16.6667 " fill="none" style="stroke:#59B6EC;stroke-width:2.0833333333333335;"/><line style="stroke:#59B6EC;stroke-width:2.0833333333333335;" x1="70.3125" x2="166.1458" y1="50.3585" y2="50.3585"/><text fill="#2FA4E7" font-family="&quot;Verdana&quot;" font-size="12.5" font-weight="bold" lengthAdjust="spacing" textLength="71.875" x="79.6875" y="37.3209">Kubernetes</text></g><!--cluster deploy--><g id="cluster_deploy"><path d="M99.4792,149.4792 L216.1458,149.4792 A6.25,6.25 0 0 1 220.3125,153.6458 L227.6042,183.171 L404.6875,183.171 A4.1667,4.1667 0 0 1 408.8542,187.3376 L408.8542,336.9792 A4.1667,4.1667 0 0 1 404.6875,341.1458 L99.4792,341.1458 A4.1667,4.1667 0 0 1 95.3125,336.9792 L95.3125,153.6458 A4.1667,4.1667 0 0 1 99.4792,149.4792 " fill="none" style="stroke:#59B6EC;stroke-width:2.0833333333333335;"/><line style="stroke:#59B6EC;stroke-width:2.0833333333333335;" x1="95.3125" x2="227.6042" y1="183.171" y2="183.171"/><text fill="#2FA4E7" font-family="&quot;Verdana&quot;" font-size="12.5" font-weight="bold" lengthAdjust="spacing" textLength="108.3333" x="104.6875" y="170.1334">WEB Deployment</text></g><!--cluster ignoreme--><g id="cluster_ignoreme"><path d="M252.6042,204.6875 L336.9792,204.6875 A6.25,6.25 0 0 1 341.1458,208.8542 L348.4375,238.3793 L379.6875,238.3793 A4.1667,4.1667 0 0 1 383.8542,242.546 L383.8542,311.9792 A4.1667,4.1667 0 0 1 379.6875,316.1458 L252.6042,316.1458 A4.1667,4.1667 0 0 1 248.4375,311.9792 L248.4375,208.8542 A4.1667,4.1667 0 0 1 252.6042,204.6875 " fill="none" style="stroke:#59B6EC;stroke-width:2.0833333333333335;"/><line style="stroke:#59B6EC;stroke-width:2.0833333333333335;" x1="248.4375" x2="348.4375" y1="238.3793" y2="238.3793"/><text fill="#2FA4E7" font-family="&quot;Verdana&quot;" font-size="12.5" font-weight="bold" lengthAdjust="spacing" textLength="76.0417" x="257.8125" y="225.3418">ReplicaSet 1</text></g><!--cluster replicaset--><g id="cluster_replicaset"><path d="M124.4792,204.6875 L208.8542,204.6875 A6.25,6.25 0 0 1 213.0208,208.8542 L220.3125,238.3793 L219.2708,238.3793 A4.1667,4.1667 0 0 1 223.4375,242.546 L223.4375,311.9792 A4.1667,4.1667 0 0 1 219.2708,316.1458 L124.4792,316.1458 A4.1667,4.1667 0 0 1 120.3125,311.9792 L120.3125,208.8542 A4.1667,4.1667 0 0 1 124.4792,204.6875 " fill="none" style="stroke:#59B6EC;stroke-width:2.0833333333333335;"/><line style="stroke:#59B6EC;stroke-width:2.0833333333333335;" x1="120.3125" x2="220.3125" y1="238.3793" y2="238.3793"/><text fill="#2FA4E7" font-family="&quot;Verdana&quot;" font-size="12.5" font-weight="bold" lengthAdjust="spacing" textLength="76.0417" x="129.6875" y="225.3418">ReplicaSet 2</text></g><!--cluster statefulset--><g id="cluster_statefulset"><path d="M104.6875,366.1458 L202.6042,366.1458 A6.25,6.25 0 0 1 206.7708,370.3125 L214.0625,399.8376 L213.0208,399.8376 A4.1667,4.1667 0 0 1 217.1875,404.0043 L217.1875,473.4375 A4.1667,4.1667 0 0 1 213.0208,477.6042 L104.6875,477.6042 A4.1667,4.1667 0 0 1 100.5208,473.4375 L100.5208,370.3125 A4.1667,4.1667 0 0 1 104.6875,366.1458 " fill="none" style="stroke:#59B6EC;stroke-width:2.0833333333333335;"/><line style="stroke:#59B6EC;stroke-width:2.0833333333333335;" x1="100.5208" x2="214.0625" y1="399.8376" y2="399.8376"/><text fill="#2FA4E7" font-family="&quot;Verdana&quot;" font-size="12.5" font-weight="bold" lengthAdjust="spacing" textLength="89.5833" x="109.8958" y="386.8001">DB Statefulset</text></g><!--cluster daemon--><g id="cluster_daemon"><path d="M246.3542,366.1458 L377.6042,366.1458 A6.25,6.25 0 0 1 381.7708,370.3125 L389.0625,399.8376 L388.0208,399.8376 A4.1667,4.1667 0 0 1 392.1875,404.0043 L392.1875,473.4375 A4.1667,4.1667 0 0 1 388.0208,477.6042 L246.3542,477.6042 A4.1667,4.1667 0 0 1 242.1875,473.4375 L242.1875,370.3125 A4.1667,4.1667 0 0 1 246.3542,366.1458 " fill="none" style="stroke:#59B6EC;stroke-width:2.0833333333333335;"/><line style="stroke:#59B6EC;stroke-width:2.0833333333333335;" x1="242.1875" x2="389.0625" y1="399.8376" y2="399.8376"/><text fill="#2FA4E7" font-family="&quot;Verdana&quot;" font-size="12.5" font-weight="bold" lengthAdjust="spacing" textLength="122.9167" x="251.5625" y="386.8001">Monitor Daemonset</text></g><!--entity Ingress--><g id="elem_Ingress"><ellipse cx="96.3542" cy="87.5" fill="#D2494E" rx="8.3333" ry="8.3333" style="stroke:#C71C22;stroke-width:1.0416666666666667;"/><text fill="#343A40" font-family="&quot;Verdana&quot;" font-size="12.5" lengthAdjust="spacing" textLength="43.75" x="74.4792" y="123.7793">Ingress</text></g><!--entity Service--><g id="elem_Service"><rect fill="#FFA500" height="48.2751" rx="4.1667" ry="4.1667" style="stroke:#999999;stroke-width:1.0416666666666667;" width="73.9583" x="142.7083" y="63.5417"/><text fill="#333333" font-family="&quot;Verdana&quot;" font-size="12.5" lengthAdjust="spacing" textLength="42.7083" x="158.3333" y="92.5293">Service</text></g><!--entity POD--><g id="elem_POD"><rect fill="#FFFFFF" height="48.2751" rx="4.1667" ry="4.1667" style="stroke:#999999;stroke-width:1.0416666666666667;" width="102.0833" x="265.1042" y="251.5625"/><text fill="#333333" font-family="&quot;Verdana&quot;" font-size="12.5" lengthAdjust="spacing" textLength="70.8333" x="280.7292" y="280.5501">Deleted Pod</text></g><!--entity pod--><g id="elem_pod"><rect fill="#FFA500" height="48.2751" rx="4.1667" ry="4.1667" style="stroke:#999999;stroke-width:1.0416666666666667;" width="57.2917" x="148.9583" y="251.5625"/><text fill="#333333" font-family="&quot;Verdana&quot;" font-size="12.5" lengthAdjust="spacing" textLength="26.0417" x="164.5833" y="280.5501">POD</text></g><!--entity db--><g id="elem_db"><rect fill="#FFA500" height="48.2751" rx="4.1667" ry="4.1667" style="stroke:#999999;stroke-width:1.0416666666666667;" width="57.2917" x="142.7083" y="413.0208"/><text fill="#333333" font-family="&quot;Verdana&quot;" font-size="12.5" lengthAdjust="spacing" textLength="26.0417" x="158.3333" y="442.0084">POD</text></g><!--entity monitor--><g id="elem_monitor"><rect fill="#FFA500" height="48.2751" rx="4.1667" ry="4.1667" style="stroke:#999999;stroke-width:1.0416666666666667;" width="57.2917" x="259.375" y="413.0208"/><text fill="#333333" font-family="&quot;Verdana&quot;" font-size="12.5" lengthAdjust="spacing" textLength="26.0417" x="275" y="442.0084">POD</text></g><!--entity user--><g id="elem_user"><ellipse cx="30.7292" cy="51.5625" fill="url(#g1hgvc497z76pm0)" rx="8.3333" ry="8.3333" style="stroke:#2FA4E7;stroke-width:1.0416666666666667;"/><path d="M30.7292,59.8958 L30.7292,88.0208 M17.1875,68.2292 L44.2708,68.2292 M30.7292,88.0208 L17.1875,103.6458 M30.7292,88.0208 L44.2708,103.6458 " fill="none" style="stroke:#2FA4E7;stroke-width:1.0416666666666667;"/><text fill="#343A40" font-family="&quot;Verdana&quot;" font-size="12.5" lengthAdjust="spacing" textLength="28.125" x="16.6667" y="124.3001">User</text></g><!--link user to Ingress--><g id="link_user_Ingress"><path d="M50.2083,87.5 C60.5417,87.5 70.8854,87.5 81.2188,87.5 " fill="none" id="user-to-Ingress" style="stroke:#2FA4E7;stroke-width:3.125;"/><polygon fill="#2FA4E7" points="86.625,87.5,77.25,83.3333,81.4167,87.5,77.25,91.6667,86.625,87.5" style="stroke:#2FA4E7;stroke-width:3.125;"/></g><!--link Ingress to Service--><g id="link_Ingress_Service"><path d="M105.7917,87.5 C116.1979,87.5 126.6042,87.5 137.0104,87.5 " fill="none" id="Ingress-to-Service" style="stroke:#2FA4E7;stroke-width:3.125;"/><polygon fill="#2FA4E7" points="142.4479,87.5,133.0729,83.3333,137.2396,87.5,133.0729,91.6667,142.4479,87.5" style="stroke:#2FA4E7;stroke-width:3.125;"/></g><!--link Service to pod--><g id="link_Service_pod"><path d="M179.4271,111.7188 C179.0417,145.7708 178.3333,209.2604 177.9271,246.0729 " fill="none" id="Service-to-pod" style="stroke:#2FA4E7;stroke-width:3.125;"/><polygon fill="#2FA4E7" points="177.8646,251.3021,182.1115,241.9631,177.9092,246.0939,173.7784,241.8917,177.8646,251.3021" style="stroke:#2FA4E7;stroke-width:3.125;"/></g><!--link pod to db--><g id="link_pod_db"><path d="M176.6979,299.7396 C175.5833,328.1875 173.6875,376.4271 172.4792,407.1979 " fill="none" id="pod-to-db" style="stroke:#2FA4E7;stroke-width:3.125;"/><polygon fill="#2FA4E7" points="172.2604,412.7396,176.7985,403.5386,172.4686,407.5354,168.4718,403.2055,172.2604,412.7396" style="stroke:#2FA4E7;stroke-width:3.125;"/></g><!--reverse link db to monitor--><g id="link_db_monitor"><path d="M205.6042,436.9792 C223.4583,436.9792 241.3125,436.9792 259.1563,436.9792 " fill="none" id="db-backto-monitor" style="stroke:#2FA4E7;stroke-width:3.125;stroke-dasharray:7.0,7.0;"/><polygon fill="#2FA4E7" points="200.0625,436.9792,209.4375,441.1458,205.2708,436.9792,209.4375,432.8125,200.0625,436.9792" style="stroke:#2FA4E7;stroke-width:3.125;"/></g><!--reverse link pod to monitor--><g id="link_pod_monitor"><path d="M196.6979,304.125 C217.9688,334.8333 251.9792,383.9271 271.9479,412.7396 " fill="none" id="pod-backto-monitor" style="stroke:#2FA4E7;stroke-width:3.125;stroke-dasharray:7.0,7.0;"/><polygon fill="#2FA4E7" points="193.6563,299.7396,195.5577,309.8211,196.617,304.0245,202.4136,305.0838,193.6563,299.7396" style="stroke:#2FA4E7;stroke-width:3.125;"/></g><!--SRC=[TP71RiCW38RlF8MNdZjfFKyzLEmmJLEhHTNE14o6ba04PD9KvTrdQ4dMIZqWuv_V7yOyn2_i4IJwiKDXcP3HUJW6z202Z1JP8EItQ17UnWQznOW1JWp0s8XU2udmQbkF8P16DXkXHlzZ959UIXKEdVjDnEhpPGSyfprvgunQZAQrpgU6alM3R4QA6YCy5MEvux3dsSEneuuK79ogOAMrpgxf2khFd42S6-pc3dPmQkPC_zuHeeYenwwW-0xgHIgmAvHgRXXAOEziBdztrgHnyopT8_HdLyPCZAK_WVLsdleb9gaC_X9XJLfw2gsyfrwOQk3vSMQcaoNz0m00]--></g></svg>